<svg xmlns="http://www.w3.org/2000/svg" viewBox="0 0 512 512"><defs><style>.a{fill:#323330;}.b{fill:#fff;}</style></defs><title>front-end-logo-bw</title><polygon class="a" points="71.5 460 30.5 0 481.5 0 440.5 460 255.5 512 71.5 460"/><polygon class="b" points="291.35 62.27 273.67 130.07 352.01 130.07 345.96 200.3 255.15 200.3 237.1 269.32 339.9 269.32 331.43 357.71 255.15 378.29 211.56 366.55 194.24 432.9 255.15 449.73 256.36 449.73 396.81 410.99 427.08 62.27 291.35 62.27"/><polygon class="b" points="178.86 357.71 178.86 357.71 171.23 269.32 202.11 269.32 220.15 200.3 165.54 200.3 159.49 130.07 238.56 130.07 256.36 62.27 84.42 62.27 114.69 410.99 161.55 423.94 178.86 357.71"/></svg>