<svg xmlns="http://www.w3.org/2000/svg" viewBox="0 0 512 512"><defs><style>.a{fill:#f1dd3f;}.b{fill:#323330;}.c{fill:#fff;opacity:0.3;}</style></defs><title>front-end-logo-color</title><path class="a" d="M71.5,460,30.5,0h451l-41,460-185,52Z"/><polygon class="b" points="285.4 93 270.8 149 335.5 149 330.5 207 255.5 207 240.6 264 325.5 264 318.5 337 255.5 354 219.5 344.3 205.2 399.1 255.5 413 256.5 413 372.5 381 397.5 93 285.4 93"/><polygon class="b" points="192.5 337 192.5 337 186.2 264 211.7 264 226.6 207 181.5 207 176.5 149 241.8 149 256.5 93 114.5 93 139.5 381 178.2 391.7 192.5 337"/><path class="c" d="M256.5,472l149-41,35-394h-184Z"/></svg>